<?xml version="1.0" encoding="UTF-8" standalone="no"?>
<!-- Created with Inkscape (http://www.inkscape.org/) -->

<svg
   version="1.0"
   width="289.875"
   height="264.125"
   id="svg2501"
   style="display:inline"
   sodipodi:docname="jolly_wrencher_eyes_caret.svg"
   inkscape:version="1.1.2 (1:1.1+202202050852+0a00cf5339)"
   xmlns:inkscape="http://www.inkscape.org/namespaces/inkscape"
   xmlns:sodipodi="http://sodipodi.sourceforge.net/DTD/sodipodi-0.dtd"
   xmlns="http://www.w3.org/2000/svg"
   xmlns:svg="http://www.w3.org/2000/svg"
   xmlns:rdf="http://www.w3.org/1999/02/22-rdf-syntax-ns#"
   xmlns:cc="http://creativecommons.org/ns#"
   xmlns:dc="http://purl.org/dc/elements/1.1/">
  <path
     style="fill:#000000;stroke:#000000;stroke-width:1px;stroke-linecap:butt;stroke-linejoin:miter;stroke-opacity:1;fill-opacity:1"
     d="m -463.19917,-84.195144 c 3.87737,-0.0153 7.77817,1.2044 11.09375,3.1875 2.84117,2.06946 5.06541,4.90265 6.75001,7.96875 1.46294,3.821817 -0.57694,8.188267 -3.65626,10.562497 -2.34781,1.57159 -4.61521,3.41028 -7.375,4.21875 -3.38384,1.11997 -6.57546,2.68864 -9.75,4.28125 -1.55891,0.88308 -2.7279,2.1701 -3.125,3.9375 -1.09591,1.78142 -0.0779,4.15644 -1.28125,5.78125 -1.82312,1.3251 -3.88701,-0.26211 -5.3125,-1.40625 -3.11923,-2.29346 -5.85997,-5.45825 -6.65625,-9.34375 -0.61423,-3.28488 -1.29453,-6.64553 -0.90625,-10 0.0485,-4.06877 1.99529,-7.835747 4.5,-10.937497 2.84521,-3.86756 6.97637,-7.19913 11.875,-7.8125 1.2709,-0.29046 2.55129,-0.4324 3.84375,-0.4375 z"
     id="path5994" />
  <path
     style="fill:#feffff;stroke:#000000;stroke-width:1px;stroke-linecap:butt;stroke-linejoin:miter;stroke-opacity:1;fill-opacity:1"
     d="m -479.21568,-65.348877 11.47981,-14.983967 a 4.0502151,4.0502151 0 0 1 3.21634,-1.58701 2.9844045,2.9844045 0 0 1 2.33101,1.69116 l 9.99722,15.822197 a 1.7905075,1.7905075 0 0 1 -0.72989,2.56625 l -1.48358,0.72231 a 2.1216575,2.1216575 0 0 1 -2.77822,-0.86795 l -6.432,-11.442377 a 1.3450189,1.3450189 0 0 0 -2.22508,-0.17824 l -9.27398,11.658507 a 1.9594231,1.9594231 0 0 1 -2.78441,0.28831 l -0.99421,-0.82469 a 2.0789723,2.0789723 0 0 1 -0.32301,-2.8645 z"
     id="path1628" />
  <path
     style="fill:#000000;stroke:#000000;stroke-width:1px;stroke-linecap:butt;stroke-linejoin:miter;stroke-opacity:1;fill-opacity:1"
     d="m -403.88666,-84.195144 c 1.29246,0.005 2.57285,0.14704 3.84375,0.4375 4.89863,0.61337 9.02979,3.94494 11.875,7.8125 2.50471,3.10175 4.4515,6.868727 4.5,10.937497 0.38828,3.35447 -0.29202,6.71512 -0.90625,10 -0.79628,3.8855 -3.53702,7.05029 -6.65625,9.34375 -1.42549,1.14414 -3.48938,2.73135 -5.3125,1.40625 -1.20333,-1.62481 -0.18533,-3.99983 -1.28125,-5.78125 -0.3971,-1.7674 -1.56609,-3.05442 -3.125,-3.9375 -3.17454,-1.59261 -6.36616,-3.16128 -9.75,-4.28125 -2.75979,-0.80847 -5.02719,-2.64716 -7.375,-4.21875 -3.07931,-2.37423 -5.11919,-6.74068 -3.65625,-10.562497 1.6846,-3.0661 3.90883,-5.8993 6.75,-7.96875 3.31558,-1.9831 7.21638,-3.20281 11.09375,-3.1875 z"
     id="path6667" />
  <path
     style="fill:#ffffff;stroke:#000000;stroke-width:1px;stroke-linecap:butt;stroke-linejoin:miter;stroke-opacity:1;fill-opacity:1"
     d="m -415.91673,-65.316177 11.47981,-14.983967 a 4.0502151,4.0502151 0 0 1 3.21634,-1.58701 2.9844045,2.9844045 0 0 1 2.33101,1.69116 l 9.99722,15.822197 a 1.7905075,1.7905075 0 0 1 -0.72989,2.56625 l -1.48358,0.72231 a 2.1216575,2.1216575 0 0 1 -2.77822,-0.86795 l -6.432,-11.442377 a 1.3450189,1.3450189 0 0 0 -2.22508,-0.17824 l -9.27398,11.658507 a 1.9594231,1.9594231 0 0 1 -2.78441,0.28831 l -0.99421,-0.82469 a 2.0789723,2.0789723 0 0 1 -0.32301,-2.8645 z"
     id="path1056" />
  <sodipodi:namedview
     id="namedview38"
     pagecolor="#ffffff"
     bordercolor="#666666"
     borderopacity="1.0"
     inkscape:pageshadow="2"
     inkscape:pageopacity="0.0"
     inkscape:pagecheckerboard="0"
     showgrid="false"
     inkscape:zoom="2.722196"
     inkscape:cx="-433.65724"
     inkscape:cy="-139.40951"
     inkscape:window-width="1878"
     inkscape:window-height="1051"
     inkscape:window-x="42"
     inkscape:window-y="0"
     inkscape:window-maximized="1"
     inkscape:current-layer="svg2501" />
  <metadata
     id="metadata3123">
    <rdf:RDF>
      <cc:Work
         rdf:about="">
        <dc:format>image/svg+xml</dc:format>
        <dc:type
           rdf:resource="http://purl.org/dc/dcmitype/StillImage" />
      </cc:Work>
    </rdf:RDF>
  </metadata>
  <defs
     id="defs2504">
    <inkscape:path-effect
       effect="fillet_chamfer"
       id="path-effect979"
       is_visible="true"
       lpeversion="1"
       satellites_param="F,0,0,1,0,2,0,1 @ F,0,0,1,0,2,0,1 @ F,0,0,1,0,2,0,1 @ F,0,0,1,0,2,0,1 @ F,0,0,1,0,2,0,1 @ F,0,0,1,0,2,0,1 @ F,0,0,1,0,2,0,1"
       unit="px"
       method="auto"
       mode="F"
       radius="2"
       chamfer_steps="1"
       flexible="false"
       use_knot_distance="true"
       apply_no_radius="true"
       apply_with_radius="true"
       only_selected="false"
       hide_knots="false" />
    <filter
       id="filter5076"
       color-interpolation-filters="sRGB">
      <feGaussianBlur
         stdDeviation="0.15793104"
         id="feGaussianBlur5078" />
    </filter>
    <filter
       id="filter5084"
       color-interpolation-filters="sRGB">
      <feGaussianBlur
         stdDeviation="0.14620583"
         id="feGaussianBlur5086" />
    </filter>
    <filter
       id="filter5092"
       color-interpolation-filters="sRGB">
      <feGaussianBlur
         stdDeviation="0.14620583"
         id="feGaussianBlur5094" />
    </filter>
    <filter
       id="filter5096"
       color-interpolation-filters="sRGB">
      <feGaussianBlur
         stdDeviation="0.14620583"
         id="feGaussianBlur5098" />
    </filter>
    <filter
       id="filter5104"
       color-interpolation-filters="sRGB">
      <feGaussianBlur
         stdDeviation="0.11379095"
         id="feGaussianBlur5106" />
    </filter>
    <filter
       id="filter5112"
       color-interpolation-filters="sRGB">
      <feGaussianBlur
         stdDeviation="0.23733402"
         id="feGaussianBlur5114" />
    </filter>
    <filter
       id="filter5120"
       color-interpolation-filters="sRGB">
      <feGaussianBlur
         stdDeviation="0.23733402"
         id="feGaussianBlur5122" />
    </filter>
    <filter
       id="filter5144"
       color-interpolation-filters="sRGB">
      <feGaussianBlur
         stdDeviation="0.37132122"
         id="feGaussianBlur5146" />
    </filter>
    <filter
       id="filter5158"
       color-interpolation-filters="sRGB">
      <feGaussianBlur
         stdDeviation="0.37132122"
         id="feGaussianBlur5160" />
    </filter>
    <filter
       id="filter5205"
       color-interpolation-filters="sRGB">
      <feGaussianBlur
         stdDeviation="0.34722241"
         id="feGaussianBlur5207" />
    </filter>
    <filter
       id="filter5224"
       color-interpolation-filters="sRGB">
      <feGaussianBlur
         stdDeviation="0.41331904"
         id="feGaussianBlur5226" />
    </filter>
    <filter
       id="filter5232"
       color-interpolation-filters="sRGB">
      <feGaussianBlur
         stdDeviation="0.34722241"
         id="feGaussianBlur5234" />
    </filter>
    <filter
       id="filter5240"
       color-interpolation-filters="sRGB">
      <feGaussianBlur
         stdDeviation="0.34273968"
         id="feGaussianBlur5242" />
    </filter>
    <filter
       id="filter5264"
       color-interpolation-filters="sRGB">
      <feGaussianBlur
         stdDeviation="0.31453825"
         id="feGaussianBlur5266" />
    </filter>
    <filter
       id="filter5277"
       color-interpolation-filters="sRGB">
      <feGaussianBlur
         stdDeviation="0.3145382"
         id="feGaussianBlur5279" />
    </filter>
    <inkscape:path-effect
       effect="fill_between_many"
       method="originald"
       linkedpaths="#path1632,0,1"
       id="path-effect1652" />
    <inkscape:path-effect
       effect="fill_between_many"
       method="originald"
       linkedpaths="#path1632,0,1|#path1628,0,1|#path1056,0,1"
       id="path-effect1888" />
  </defs>
</svg>
