<?xml version="1.0" encoding="UTF-8" standalone="no"?>
<!-- Created with Inkscape (http://www.inkscape.org/) -->

<svg
   xmlns:dc="http://purl.org/dc/elements/1.1/"
   xmlns:cc="http://creativecommons.org/ns#"
   xmlns:rdf="http://www.w3.org/1999/02/22-rdf-syntax-ns#"
   xmlns:svg="http://www.w3.org/2000/svg"
   xmlns="http://www.w3.org/2000/svg"
   xmlns:sodipodi="http://sodipodi.sourceforge.net/DTD/sodipodi-0.dtd"
   xmlns:inkscape="http://www.inkscape.org/namespaces/inkscape"
   version="1.0"
   width="289.875"
   height="264.125"
   id="svg2501"
   style="display:inline"
   inkscape:version="0.92.5 (2060ec1f9f, 2020-04-08)"
   sodipodi:docname="jolly_wrencher_edge_2.svg">
  <metadata
     id="metadata3123">
    <rdf:RDF>
      <cc:Work
         rdf:about="">
        <dc:format>image/svg+xml</dc:format>
        <dc:type
           rdf:resource="http://purl.org/dc/dcmitype/StillImage" />
        <dc:title></dc:title>
      </cc:Work>
    </rdf:RDF>
  </metadata>
  <sodipodi:namedview
     pagecolor="#ffffff"
     bordercolor="#666666"
     borderopacity="1"
     objecttolerance="10"
     gridtolerance="10"
     guidetolerance="10"
     inkscape:pageopacity="0"
     inkscape:pageshadow="2"
     inkscape:window-width="1878"
     inkscape:window-height="1051"
     id="namedview3121"
     showgrid="false"
     inkscape:zoom="1.5733333"
     inkscape:cx="-34.254703"
     inkscape:cy="152.14953"
     inkscape:window-x="42"
     inkscape:window-y="0"
     inkscape:window-maximized="1"
     inkscape:current-layer="svg2501"
     fit-margin-top="0"
     fit-margin-left="0"
     fit-margin-right="0"
     fit-margin-bottom="0" />
  <defs
     id="defs2504">
    <filter
       id="filter5076"
       color-interpolation-filters="sRGB">
      <feGaussianBlur
         inkscape:collect="always"
         stdDeviation="0.15793104"
         id="feGaussianBlur5078" />
    </filter>
    <filter
       id="filter5084"
       color-interpolation-filters="sRGB">
      <feGaussianBlur
         inkscape:collect="always"
         stdDeviation="0.14620583"
         id="feGaussianBlur5086" />
    </filter>
    <filter
       id="filter5092"
       color-interpolation-filters="sRGB">
      <feGaussianBlur
         inkscape:collect="always"
         stdDeviation="0.14620583"
         id="feGaussianBlur5094" />
    </filter>
    <filter
       id="filter5096"
       color-interpolation-filters="sRGB">
      <feGaussianBlur
         inkscape:collect="always"
         stdDeviation="0.14620583"
         id="feGaussianBlur5098" />
    </filter>
    <filter
       id="filter5104"
       color-interpolation-filters="sRGB">
      <feGaussianBlur
         inkscape:collect="always"
         stdDeviation="0.11379095"
         id="feGaussianBlur5106" />
    </filter>
    <filter
       id="filter5112"
       color-interpolation-filters="sRGB">
      <feGaussianBlur
         inkscape:collect="always"
         stdDeviation="0.23733402"
         id="feGaussianBlur5114" />
    </filter>
    <filter
       id="filter5120"
       color-interpolation-filters="sRGB">
      <feGaussianBlur
         inkscape:collect="always"
         stdDeviation="0.23733402"
         id="feGaussianBlur5122" />
    </filter>
    <filter
       id="filter5144"
       color-interpolation-filters="sRGB">
      <feGaussianBlur
         inkscape:collect="always"
         stdDeviation="0.37132122"
         id="feGaussianBlur5146" />
    </filter>
    <filter
       id="filter5158"
       color-interpolation-filters="sRGB">
      <feGaussianBlur
         inkscape:collect="always"
         stdDeviation="0.37132122"
         id="feGaussianBlur5160" />
    </filter>
    <filter
       id="filter5205"
       color-interpolation-filters="sRGB">
      <feGaussianBlur
         inkscape:collect="always"
         stdDeviation="0.34722241"
         id="feGaussianBlur5207" />
    </filter>
    <filter
       id="filter5224"
       color-interpolation-filters="sRGB">
      <feGaussianBlur
         inkscape:collect="always"
         stdDeviation="0.41331904"
         id="feGaussianBlur5226" />
    </filter>
    <filter
       id="filter5232"
       color-interpolation-filters="sRGB">
      <feGaussianBlur
         inkscape:collect="always"
         stdDeviation="0.34722241"
         id="feGaussianBlur5234" />
    </filter>
    <filter
       id="filter5240"
       color-interpolation-filters="sRGB">
      <feGaussianBlur
         inkscape:collect="always"
         stdDeviation="0.34273968"
         id="feGaussianBlur5242" />
    </filter>
    <filter
       id="filter5264"
       color-interpolation-filters="sRGB">
      <feGaussianBlur
         inkscape:collect="always"
         stdDeviation="0.31453825"
         id="feGaussianBlur5266" />
    </filter>
    <filter
       id="filter5277"
       color-interpolation-filters="sRGB">
      <feGaussianBlur
         inkscape:collect="always"
         stdDeviation="0.3145382"
         id="feGaussianBlur5279" />
    </filter>
  </defs>
  <g
     id="layer2"
     style="display:inline;fill:#ffffff;stroke:#000000;stroke-opacity:1"
     transform="translate(-3.1557237,104.732)" />
  <g
     id="layer12"
     style="display:inline;fill:#ffffff;stroke:#000000;stroke-opacity:1"
     transform="translate(-9.5116563,-28.742579)">
    <path
       style="display:inline;fill:#ffffff;fill-opacity:1;stroke:#000000;stroke-opacity:1"
       d="M 41.728516,11.90625 C 34.208885,11.944336 27.069222,14.592353 19.859375,16.380859 28.844934,24.36789 37.829354,32.356202 46.814453,40.34375 40.852865,46.958333 34.891276,53.572917 28.929688,60.1875 20.123269,52.382562 11.314996,44.579716 2.5097656,36.773438 -7.681344,59.023423 4.7782431,88.752626 28.589844,95.673828 c 7.387857,2.420058 15.443034,2.810207 23.015625,1.03125 9.647417,8.557702 19.365251,17.096572 28.96875,25.666012 -6.670145,17.95876 -7.493474,38.02603 -2.03711,56.41211 -9.362829,7.93899 -18.212301,16.78465 -27.830078,24.23828 -25.137201,-6.0797 -52.6699149,15.78503 -51.6367185,41.79493 -0.0248199,6.24058 1.407999,12.35832 2.8085937,18.40039 9.0966588,-8.07388 18.1926628,-16.14849 27.2890628,-24.22266 5.929036,6.55404 11.858073,13.10807 17.787109,19.66211 -9.00052,7.99689 -18.002108,15.99258 -27.001953,23.99023 20.859053,12.04606 51.145433,3.30039 60.859375,-19.14648 3.231415,-6.8264 4.648027,-14.52073 3.945312,-22.04688 6.067058,-5.37369 12.134115,-10.74739 18.201168,-16.12109 0.91741,12.20505 14.7434,22.04712 26.35547,16.70313 2.57617,-0.95045 4.77946,-3.244 6.84571,-4.53711 7.17978,7.54466 20.80699,7.66916 27.82812,-0.1543 9.06718,10.2431 28.74639,6.33432 32.19531,-7.2793 1.04089,-1.96944 -0.12102,-6.98519 2.82032,-2.95703 5.42873,4.8566 11.49064,9.44506 16.13281,14.91406 -2.77532,25.79929 22.73404,50.26101 48.43164,45.66211 5.8387,-0.79316 11.42145,-2.76821 17.00391,-4.56836 -9.17549,-8.15332 -18.35161,-16.30594 -27.52735,-24.45898 5.92904,-6.55404 11.85807,-13.10807 17.78711,-19.66211 8.94863,7.94199 17.8967,15.88461 26.8457,23.82617 10.0199,-22.48263 -2.95933,-52.31387 -27.08398,-58.75586 -6.97185,-2.12306 -14.49145,-2.47032 -21.61523,-0.91015 -8.90407,-8.384 -19.50214,-16.27663 -27.35743,-24.96485 5.02362,-18.23267 4.38409,-38.06179 -2.22461,-55.8125 9.83703,-8.41191 19.19935,-17.66639 29.34961,-25.535153 25.18132,6.482463 53.08595,-15.314002 52.17969,-41.457031 0.0596,-6.449706 -1.44885,-12.772132 -3.01758,-18.984375 -8.94401,7.931231 -17.89222,15.857741 -26.83789,23.787109 -5.96159,-6.614583 -11.92317,-13.229167 -17.88476,-19.84375 8.96752,-7.971917 17.93435,-15.944616 26.90234,-23.916016 -13.13657,-4.505639 -28.38017,-7.1515988 -41.15234,-0.07031 -15.08814,7.664424 -25.3759,24.595242 -23.91602,41.585937 -9.39881,7.96861 -18.36024,16.44502 -27.66992,24.552735 C 165.25127,67.893397 134.74493,67.768515 112.68359,82.511719 103.52355,74.083098 93.521942,66.298882 84.90625,57.443359 86.934431,33.663578 65.656926,11.005571 41.728516,11.90625 Z"
       id="path1019"
       inkscape:connector-curvature="0" />
  </g>
  <g
     id="layer2-3"
     style="display:inline;fill:#ffffff;stroke:#000000;stroke-opacity:1"
     transform="translate(-484.95763,-136.29874)" />
</svg>
