<?xml version="1.0" encoding="UTF-8" standalone="no"?>
<!-- Created with Inkscape (http://www.inkscape.org/) -->

<svg
   version="1.0"
   width="289.875"
   height="264.125"
   id="svg2501"
   style="display:inline"
   sodipodi:docname="jolly_wrencher_silk_smooth.svg"
   inkscape:version="1.1.2 (1:1.1+202202050852+0a00cf5339)"
   xmlns:inkscape="http://www.inkscape.org/namespaces/inkscape"
   xmlns:sodipodi="http://sodipodi.sourceforge.net/DTD/sodipodi-0.dtd"
   xmlns="http://www.w3.org/2000/svg"
   xmlns:svg="http://www.w3.org/2000/svg"
   xmlns:rdf="http://www.w3.org/1999/02/22-rdf-syntax-ns#"
   xmlns:cc="http://creativecommons.org/ns#"
   xmlns:dc="http://purl.org/dc/elements/1.1/">
  <sodipodi:namedview
     id="namedview38"
     pagecolor="#ffffff"
     bordercolor="#666666"
     borderopacity="1.0"
     inkscape:pageshadow="2"
     inkscape:pageopacity="0.0"
     inkscape:pagecheckerboard="0"
     showgrid="false"
     inkscape:zoom="1.9248832"
     inkscape:cx="-85.979243"
     inkscape:cy="203.38896"
     inkscape:window-width="1878"
     inkscape:window-height="1051"
     inkscape:window-x="42"
     inkscape:window-y="0"
     inkscape:window-maximized="1"
     inkscape:current-layer="svg2501" />
  <metadata
     id="metadata3123">
    <rdf:RDF>
      <cc:Work
         rdf:about="">
        <dc:format>image/svg+xml</dc:format>
        <dc:type
           rdf:resource="http://purl.org/dc/dcmitype/StillImage" />
      </cc:Work>
    </rdf:RDF>
  </metadata>
  <defs
     id="defs2504">
    <filter
       id="filter5076"
       color-interpolation-filters="sRGB">
      <feGaussianBlur
         stdDeviation="0.15793104"
         id="feGaussianBlur5078" />
    </filter>
    <filter
       id="filter5084"
       color-interpolation-filters="sRGB">
      <feGaussianBlur
         stdDeviation="0.14620583"
         id="feGaussianBlur5086" />
    </filter>
    <filter
       id="filter5092"
       color-interpolation-filters="sRGB">
      <feGaussianBlur
         stdDeviation="0.14620583"
         id="feGaussianBlur5094" />
    </filter>
    <filter
       id="filter5096"
       color-interpolation-filters="sRGB">
      <feGaussianBlur
         stdDeviation="0.14620583"
         id="feGaussianBlur5098" />
    </filter>
    <filter
       id="filter5104"
       color-interpolation-filters="sRGB">
      <feGaussianBlur
         stdDeviation="0.11379095"
         id="feGaussianBlur5106" />
    </filter>
    <filter
       id="filter5112"
       color-interpolation-filters="sRGB">
      <feGaussianBlur
         stdDeviation="0.23733402"
         id="feGaussianBlur5114" />
    </filter>
    <filter
       id="filter5120"
       color-interpolation-filters="sRGB">
      <feGaussianBlur
         stdDeviation="0.23733402"
         id="feGaussianBlur5122" />
    </filter>
    <filter
       id="filter5144"
       color-interpolation-filters="sRGB">
      <feGaussianBlur
         stdDeviation="0.37132122"
         id="feGaussianBlur5146" />
    </filter>
    <filter
       id="filter5158"
       color-interpolation-filters="sRGB">
      <feGaussianBlur
         stdDeviation="0.37132122"
         id="feGaussianBlur5160" />
    </filter>
    <filter
       id="filter5205"
       color-interpolation-filters="sRGB">
      <feGaussianBlur
         stdDeviation="0.34722241"
         id="feGaussianBlur5207" />
    </filter>
    <filter
       id="filter5224"
       color-interpolation-filters="sRGB">
      <feGaussianBlur
         stdDeviation="0.41331904"
         id="feGaussianBlur5226" />
    </filter>
    <filter
       id="filter5232"
       color-interpolation-filters="sRGB">
      <feGaussianBlur
         stdDeviation="0.34722241"
         id="feGaussianBlur5234" />
    </filter>
    <filter
       id="filter5240"
       color-interpolation-filters="sRGB">
      <feGaussianBlur
         stdDeviation="0.34273968"
         id="feGaussianBlur5242" />
    </filter>
    <filter
       id="filter5264"
       color-interpolation-filters="sRGB">
      <feGaussianBlur
         stdDeviation="0.31453825"
         id="feGaussianBlur5266" />
    </filter>
    <filter
       id="filter5277"
       color-interpolation-filters="sRGB">
      <feGaussianBlur
         stdDeviation="0.3145382"
         id="feGaussianBlur5279" />
    </filter>
  </defs>
  <g
     id="layer2"
     style="display:inline;fill:#ffffff;stroke:#000000;stroke-opacity:1"
     transform="translate(-3.1557237,104.732)" />
  <g
     id="layer2-3"
     style="display:inline;fill:#ffffff;stroke:#000000;stroke-opacity:1"
     transform="translate(-484.95763,-136.29874)" />
  <path
     id="path1090"
     style="display:inline;fill:#ffffff;fill-opacity:1;stroke:#000000;stroke-width:1;stroke-miterlimit:4;stroke-dasharray:none;stroke-opacity:1"
     d="m -249.451,124.96658 c 3.87737,-0.0153 7.77817,1.2044 11.09375,3.1875 2.84117,2.06946 5.0654,4.90265 6.75,7.96875 1.46294,3.82182 -0.57694,8.18827 -3.65625,10.5625 -2.34781,1.57159 -4.61521,3.41028 -7.375,4.21875 -3.38384,1.11997 -6.57546,2.68864 -9.75,4.28125 -1.55891,0.88308 -2.7279,2.1701 -3.125,3.9375 -1.09591,1.78142 -0.0779,4.15644 -1.28125,5.78125 -1.82312,1.3251 -3.88701,-0.26211 -5.3125,-1.40625 -3.11923,-2.29346 -5.85997,-5.45825 -6.65625,-9.34375 -0.61423,-3.28488 -1.29453,-6.64553 -0.90625,-10 0.0485,-4.06877 1.99529,-7.83575 4.5,-10.9375 2.84521,-3.86756 6.97637,-7.19913 11.875,-7.8125 1.2709,-0.29046 2.55129,-0.4324 3.84375,-0.4375 z m 59.3125,0 c 1.29246,0.005 2.57285,0.14704 3.84375,0.4375 4.89863,0.61337 9.02979,3.94494 11.875,7.8125 2.50471,3.10175 4.4515,6.86873 4.5,10.9375 0.38828,3.35447 -0.29202,6.71512 -0.90625,10 -0.79628,3.8855 -3.53702,7.05029 -6.65625,9.34375 -1.42549,1.14414 -3.48938,2.73135 -5.3125,1.40625 -1.20333,-1.62481 -0.18533,-3.99983 -1.28125,-5.78125 -0.3971,-1.7674 -1.56609,-3.05442 -3.125,-3.9375 -3.17454,-1.59261 -6.36616,-3.16128 -9.75,-4.28125 -2.75979,-0.80847 -5.02719,-2.64716 -7.375,-4.21875 -3.07931,-2.37423 -5.11919,-6.74068 -3.65625,-10.5625 1.6846,-3.0661 3.90883,-5.8993 6.75,-7.96875 3.31558,-1.9831 7.21638,-3.20281 11.09375,-3.1875 z m -29.4375,39.25 c 3.69479,0.10156 7.34295,15.42198 6.40625,21.46875 -3.08233,9.0731 -2.51099,-5.91849 -6.40625,-6.09375 -4.06846,0.0127 -4.82315,14.82175 -6.9375,6.125 -0.66664,-6.57125 3.5692,-21.59258 6.9375,-21.5 z m -0.21875,-96.312499 c -38.09944,-2e-6 -69,34.232019 -69,76.468749 0,26.11684 11.8471,49.17465 29.875,62.96875 -1.18992,2.01969 -1.87601,4.38005 -1.875,6.90625 -0.003,7.42941 5.91632,13.46875 13.21875,13.46875 7.30241,0 13.22172,-6.03934 13.21875,-13.46875 2.1e-4,-0.52917 -0.0355,-1.04926 -0.0937,-1.5625 h 1.8125 c -0.1031,0.66012 -0.15653,1.34216 -0.15625,2.03125 -0.003,7.17884 5.81821,13 13,13 7.18176,0 13.00292,-5.82116 13,-13 2.8e-4,-0.68909 -0.0531,-1.37113 -0.15625,-2.03125 h 2.3125 c -0.1031,0.66012 -0.15653,1.34216 -0.15625,2.03125 -0.003,7.17884 5.81821,13 13,13 7.18176,0 13.00292,-5.82116 13,-13 0.001,-2.64206 -0.8021,-5.10449 -2.15625,-7.15625 18.18729,-13.76861 30.1562,-36.93396 30.1562,-63.1875 0,-42.23673 -30.90056,-76.46875 -69,-76.468749 z m 42.65625,8.3125 c 10.49705,7.992221 18.81531,18.718184 24.3125,30.687499 9.95833,-8.812501 19.91667,-17.624997 29.875,-26.437499 16.68639,5.72231 36.880336,-2.764992 44.209718,-18.901437 2.680626,-5.379987 4.423853,-11.64119 3.577352,-17.65412 -1.883587,-4.240441 -6.235948,-1.056644 -8.337566,1.204475 -5.233165,4.637861 -10.466335,9.275721 -15.699505,13.913582 -8.635419,-9.583332 -17.270829,-19.166668 -25.906249,-28.75 6.0338,-5.485576 12.32406,-10.71492 18.19375,-16.364611 3.66334,-6.5896636 -6.44611,-6.0317906 -10.35472,-5.1993636 -15.58525,2.3697006 -29.37397,15.5157396 -30.93651,31.4752036 -0.69464,3.612734 -0.20441,7.274944 -0.55226,10.907711 -9.4605,8.372855 -18.92101,16.745705 -28.38151,25.11856 z M -350.34723,206.21508 c -3.50609,2.67217 -8.14832,8.26422 -10.18068,12.17727 -2.54222,4.89472 -3.99998,10.35874 -4.19722,15.86568 -0.15779,4.40579 3.29644,5.58072 6.6006,2.64752 5.98493,-5.31299 11.96985,-10.62598 17.95478,-15.93897 l 25.84375,28.5625 c -6.02717,5.35401 -12.05434,10.70801 -18.08151,16.06202 -3.30321,2.93428 -2.53478,6.47893 1.86219,6.79476 8.93446,0.64174 18.10114,-2.08451 25.23341,-7.50535 3.50965,-2.66749 8.16037,-8.25175 10.20505,-12.15851 3.70741,-7.08373 5.147,-15.36666 3.71836,-23.25542 l 24.0625,-21.3125 c -9.58629,-8.64734 -17.20217,-19.86714 -21.96875,-32.6875 l -27.875,24.6875 c -11.18632,-3.51272 -23.90592,-1.00534 -33.17748,6.061 z m 9.95873,-147.185999 -17.63787,-15.631443 c -3.3066,-2.930454 -6.81189,-1.764148 -6.71296,2.643328 0.16471,7.33785 2.57258,14.615267 6.80651,20.612445 2.5427,3.601616 7.92235,8.488944 11.75004,10.676687 8.8501,5.058333 19.77732,6.341608 29.54428,3.136483 l 29.875,26.437499 c 5.67539,-12.330309 14.05997,-22.873774 24.3125,-30.687499 l -28.8125,-25.5 c 1.5283,-9.66952 -1.16107,-19.810894 -6.99461,-27.616721 -2.63925,-3.531562 -8.14672,-8.273959 -12.03226,-10.357156 -5.92587,-3.1770976 -12.73262,-4.7041056 -19.44482,-4.3488936 -4.40241,0.232977 -5.19545,3.7027866 -1.89368,6.6386846 l 17.14662,15.246586 z m 204.95826,204.949879 c 3.3793,2.83038 9.86517,6.10956 14.12826,7.23703 3.98539,1.05402 8.14588,1.45281 12.25392,1.15442 4.39724,-0.3194 5.16928,-3.84503 1.86607,-6.77931 -6.02717,-5.35401 -12.05434,-10.70801 -18.08151,-16.06202 l 25.843749,-28.5625 c 5.98493,5.31299 11.96985,10.62598 17.954779,15.93897 3.304165,2.9332 6.788217,1.76096 6.628218,-2.64403 -0.394173,-10.85216 -5.836295,-21.47221 -14.436037,-28.10197 -3.49083,-2.69118 -10.10994,-5.69264 -14.413029,-6.65735 -6.16854,-1.38293 -12.68553,-1.22198 -18.73393,0.65188 l -27.875,-24.6875 c -4.76658,12.82036 -12.38246,24.04016 -21.96875,32.6875 l 24.0625,21.3125 c -2.37482,12.70486 2.94161,26.27986 12.77076,34.51238 z" />
</svg>
