<?xml version="1.0" encoding="UTF-8" standalone="no"?>
<!-- Created with Inkscape (http://www.inkscape.org/) -->

<svg
   version="1.0"
   width="289.875"
   height="264.125"
   id="svg2501"
   style="display:inline"
   sodipodi:docname="jolly_wrencher_eyes_smooth.svg"
   inkscape:version="1.1.2 (1:1.1+202202050852+0a00cf5339)"
   xmlns:inkscape="http://www.inkscape.org/namespaces/inkscape"
   xmlns:sodipodi="http://sodipodi.sourceforge.net/DTD/sodipodi-0.dtd"
   xmlns="http://www.w3.org/2000/svg"
   xmlns:svg="http://www.w3.org/2000/svg"
   xmlns:rdf="http://www.w3.org/1999/02/22-rdf-syntax-ns#"
   xmlns:cc="http://creativecommons.org/ns#"
   xmlns:dc="http://purl.org/dc/elements/1.1/">
  <sodipodi:namedview
     id="namedview38"
     pagecolor="#ffffff"
     bordercolor="#666666"
     borderopacity="1.0"
     inkscape:pageshadow="2"
     inkscape:pageopacity="0.0"
     inkscape:pagecheckerboard="0"
     showgrid="false"
     inkscape:zoom="1.361098"
     inkscape:cx="-299.39064"
     inkscape:cy="68.694539"
     inkscape:window-width="1878"
     inkscape:window-height="1051"
     inkscape:window-x="42"
     inkscape:window-y="0"
     inkscape:window-maximized="1"
     inkscape:current-layer="svg2501" />
  <metadata
     id="metadata3123">
    <rdf:RDF>
      <cc:Work
         rdf:about="">
        <dc:format>image/svg+xml</dc:format>
        <dc:type
           rdf:resource="http://purl.org/dc/dcmitype/StillImage" />
      </cc:Work>
    </rdf:RDF>
  </metadata>
  <defs
     id="defs2504">
    <filter
       id="filter5076"
       color-interpolation-filters="sRGB">
      <feGaussianBlur
         stdDeviation="0.15793104"
         id="feGaussianBlur5078" />
    </filter>
    <filter
       id="filter5084"
       color-interpolation-filters="sRGB">
      <feGaussianBlur
         stdDeviation="0.14620583"
         id="feGaussianBlur5086" />
    </filter>
    <filter
       id="filter5092"
       color-interpolation-filters="sRGB">
      <feGaussianBlur
         stdDeviation="0.14620583"
         id="feGaussianBlur5094" />
    </filter>
    <filter
       id="filter5096"
       color-interpolation-filters="sRGB">
      <feGaussianBlur
         stdDeviation="0.14620583"
         id="feGaussianBlur5098" />
    </filter>
    <filter
       id="filter5104"
       color-interpolation-filters="sRGB">
      <feGaussianBlur
         stdDeviation="0.11379095"
         id="feGaussianBlur5106" />
    </filter>
    <filter
       id="filter5112"
       color-interpolation-filters="sRGB">
      <feGaussianBlur
         stdDeviation="0.23733402"
         id="feGaussianBlur5114" />
    </filter>
    <filter
       id="filter5120"
       color-interpolation-filters="sRGB">
      <feGaussianBlur
         stdDeviation="0.23733402"
         id="feGaussianBlur5122" />
    </filter>
    <filter
       id="filter5144"
       color-interpolation-filters="sRGB">
      <feGaussianBlur
         stdDeviation="0.37132122"
         id="feGaussianBlur5146" />
    </filter>
    <filter
       id="filter5158"
       color-interpolation-filters="sRGB">
      <feGaussianBlur
         stdDeviation="0.37132122"
         id="feGaussianBlur5160" />
    </filter>
    <filter
       id="filter5205"
       color-interpolation-filters="sRGB">
      <feGaussianBlur
         stdDeviation="0.34722241"
         id="feGaussianBlur5207" />
    </filter>
    <filter
       id="filter5224"
       color-interpolation-filters="sRGB">
      <feGaussianBlur
         stdDeviation="0.41331904"
         id="feGaussianBlur5226" />
    </filter>
    <filter
       id="filter5232"
       color-interpolation-filters="sRGB">
      <feGaussianBlur
         stdDeviation="0.34722241"
         id="feGaussianBlur5234" />
    </filter>
    <filter
       id="filter5240"
       color-interpolation-filters="sRGB">
      <feGaussianBlur
         stdDeviation="0.34273968"
         id="feGaussianBlur5242" />
    </filter>
    <filter
       id="filter5264"
       color-interpolation-filters="sRGB">
      <feGaussianBlur
         stdDeviation="0.31453825"
         id="feGaussianBlur5266" />
    </filter>
    <filter
       id="filter5277"
       color-interpolation-filters="sRGB">
      <feGaussianBlur
         stdDeviation="0.3145382"
         id="feGaussianBlur5279" />
    </filter>
  </defs>
  <g
     id="layer2"
     style="display:inline;fill:#ffffff;stroke:#000000;stroke-opacity:1"
     transform="translate(-3.1557237,104.732)" />
  <g
     id="layer2-3"
     style="display:inline;fill:#ffffff;stroke:#000000;stroke-opacity:1"
     transform="translate(-484.95763,-136.29874)" />
  <path
     style="display:inline;fill:#ffffff;fill-opacity:1;stroke:#000000;stroke-width:1;stroke-miterlimit:4;stroke-dasharray:none;stroke-opacity:1"
     d="m -190.1385,124.96658 c 1.29246,0.005 2.57285,0.14704 3.84375,0.4375 4.89863,0.61337 9.02979,3.94494 11.875,7.8125 2.50471,3.10175 4.4515,6.86873 4.5,10.9375 0.38828,3.35447 -0.29202,6.71512 -0.90625,10 -0.79628,3.8855 -3.53702,7.05029 -6.65625,9.34375 -1.42549,1.14414 -3.48938,2.73135 -5.3125,1.40625 -1.20333,-1.62481 -0.18533,-3.99983 -1.28125,-5.78125 -0.3971,-1.7674 -1.56609,-3.05442 -3.125,-3.9375 -3.17454,-1.59261 -6.36616,-3.16128 -9.75,-4.28125 -2.75979,-0.80847 -5.02719,-2.64716 -7.375,-4.21875 -3.07931,-2.37423 -5.11919,-6.74068 -3.65625,-10.5625 1.6846,-3.0661 3.90883,-5.8993 6.75,-7.96875 3.31558,-1.9831 7.21638,-3.20281 11.09375,-3.1875 z"
     id="path42" />
  <path
     style="display:inline;fill:#ffffff;fill-opacity:1;stroke:#000000;stroke-width:1;stroke-miterlimit:4;stroke-dasharray:none;stroke-opacity:1"
     d="m -249.451,124.96658 c 3.87737,-0.0153 7.77817,1.2044 11.09375,3.1875 2.84117,2.06946 5.0654,4.90265 6.75,7.96875 1.46294,3.82182 -0.57694,8.18827 -3.65625,10.5625 -2.34781,1.57159 -4.61521,3.41028 -7.375,4.21875 -3.38384,1.11997 -6.57546,2.68864 -9.75,4.28125 -1.55891,0.88308 -2.7279,2.1701 -3.125,3.9375 -1.09591,1.78142 -0.0779,4.15644 -1.28125,5.78125 -1.82312,1.3251 -3.88701,-0.26211 -5.3125,-1.40625 -3.11923,-2.29346 -5.85997,-5.45825 -6.65625,-9.34375 -0.61423,-3.28488 -1.29453,-6.64553 -0.90625,-10 0.0485,-4.06877 1.99529,-7.83575 4.5,-10.9375 2.84521,-3.86756 6.97637,-7.19913 11.875,-7.8125 1.2709,-0.29046 2.55129,-0.4324 3.84375,-0.4375 z"
     id="path1090" />
</svg>
