<?xml version="1.0" encoding="UTF-8" standalone="no"?>
<!-- Created with Inkscape (http://www.inkscape.org/) -->

<svg
   xmlns:dc="http://purl.org/dc/elements/1.1/"
   xmlns:cc="http://creativecommons.org/ns#"
   xmlns:rdf="http://www.w3.org/1999/02/22-rdf-syntax-ns#"
   xmlns:svg="http://www.w3.org/2000/svg"
   xmlns="http://www.w3.org/2000/svg"
   xmlns:sodipodi="http://sodipodi.sourceforge.net/DTD/sodipodi-0.dtd"
   xmlns:inkscape="http://www.inkscape.org/namespaces/inkscape"
   version="1.0"
   width="289.875"
   height="264.125"
   id="svg2501"
   style="display:inline"
   inkscape:version="0.92.5 (2060ec1f9f, 2020-04-08)"
   sodipodi:docname="jolly_wrencher_edge.svg">
  <metadata
     id="metadata3123">
    <rdf:RDF>
      <cc:Work
         rdf:about="">
        <dc:format>image/svg+xml</dc:format>
        <dc:type
           rdf:resource="http://purl.org/dc/dcmitype/StillImage" />
        <dc:title></dc:title>
      </cc:Work>
    </rdf:RDF>
  </metadata>
  <sodipodi:namedview
     pagecolor="#ffffff"
     bordercolor="#666666"
     borderopacity="1"
     objecttolerance="10"
     gridtolerance="10"
     guidetolerance="10"
     inkscape:pageopacity="0"
     inkscape:pageshadow="2"
     inkscape:window-width="1878"
     inkscape:window-height="1051"
     id="namedview3121"
     showgrid="false"
     inkscape:zoom="1.5733333"
     inkscape:cx="-34.254703"
     inkscape:cy="152.14953"
     inkscape:window-x="42"
     inkscape:window-y="0"
     inkscape:window-maximized="1"
     inkscape:current-layer="svg2501"
     fit-margin-top="0"
     fit-margin-left="0"
     fit-margin-right="0"
     fit-margin-bottom="0" />
  <defs
     id="defs2504">
    <filter
       id="filter5076"
       color-interpolation-filters="sRGB">
      <feGaussianBlur
         inkscape:collect="always"
         stdDeviation="0.15793104"
         id="feGaussianBlur5078" />
    </filter>
    <filter
       id="filter5084"
       color-interpolation-filters="sRGB">
      <feGaussianBlur
         inkscape:collect="always"
         stdDeviation="0.14620583"
         id="feGaussianBlur5086" />
    </filter>
    <filter
       id="filter5092"
       color-interpolation-filters="sRGB">
      <feGaussianBlur
         inkscape:collect="always"
         stdDeviation="0.14620583"
         id="feGaussianBlur5094" />
    </filter>
    <filter
       id="filter5096"
       color-interpolation-filters="sRGB">
      <feGaussianBlur
         inkscape:collect="always"
         stdDeviation="0.14620583"
         id="feGaussianBlur5098" />
    </filter>
    <filter
       id="filter5104"
       color-interpolation-filters="sRGB">
      <feGaussianBlur
         inkscape:collect="always"
         stdDeviation="0.11379095"
         id="feGaussianBlur5106" />
    </filter>
    <filter
       id="filter5112"
       color-interpolation-filters="sRGB">
      <feGaussianBlur
         inkscape:collect="always"
         stdDeviation="0.23733402"
         id="feGaussianBlur5114" />
    </filter>
    <filter
       id="filter5120"
       color-interpolation-filters="sRGB">
      <feGaussianBlur
         inkscape:collect="always"
         stdDeviation="0.23733402"
         id="feGaussianBlur5122" />
    </filter>
    <filter
       id="filter5144"
       color-interpolation-filters="sRGB">
      <feGaussianBlur
         inkscape:collect="always"
         stdDeviation="0.37132122"
         id="feGaussianBlur5146" />
    </filter>
    <filter
       id="filter5158"
       color-interpolation-filters="sRGB">
      <feGaussianBlur
         inkscape:collect="always"
         stdDeviation="0.37132122"
         id="feGaussianBlur5160" />
    </filter>
    <filter
       id="filter5205"
       color-interpolation-filters="sRGB">
      <feGaussianBlur
         inkscape:collect="always"
         stdDeviation="0.34722241"
         id="feGaussianBlur5207" />
    </filter>
    <filter
       id="filter5224"
       color-interpolation-filters="sRGB">
      <feGaussianBlur
         inkscape:collect="always"
         stdDeviation="0.41331904"
         id="feGaussianBlur5226" />
    </filter>
    <filter
       id="filter5232"
       color-interpolation-filters="sRGB">
      <feGaussianBlur
         inkscape:collect="always"
         stdDeviation="0.34722241"
         id="feGaussianBlur5234" />
    </filter>
    <filter
       id="filter5240"
       color-interpolation-filters="sRGB">
      <feGaussianBlur
         inkscape:collect="always"
         stdDeviation="0.34273968"
         id="feGaussianBlur5242" />
    </filter>
    <filter
       id="filter5264"
       color-interpolation-filters="sRGB">
      <feGaussianBlur
         inkscape:collect="always"
         stdDeviation="0.31453825"
         id="feGaussianBlur5266" />
    </filter>
    <filter
       id="filter5277"
       color-interpolation-filters="sRGB">
      <feGaussianBlur
         inkscape:collect="always"
         stdDeviation="0.3145382"
         id="feGaussianBlur5279" />
    </filter>
  </defs>
  <g
     id="layer2"
     style="display:inline;fill:#ffffff;stroke:#000000;stroke-opacity:1"
     transform="translate(-3.1557237,104.732)" />
  <g
     id="layer12"
     style="display:inline;fill:#ffffff;stroke:#000000;stroke-opacity:1"
     transform="translate(-9.5116563,-28.742579)">
    <path
       style="display:inline;fill:#ffffff;fill-opacity:1;stroke:#000000;stroke-opacity:1"
       d="m 37.808594,-4.0527344 c -0.734803,0.00222 -1.472345,0.027702 -2.212891,0.076172 -5.720524,0.131742 -11.208695,1.9660801 -16.695312,3.39257812 C 27.463651,7.0257556 36.023899,14.638884 44.585938,22.25 L 24.027344,45.0625 C 15.46149,37.472116 6.896463,29.8808 -1.6699219,22.291016 c -7.6870428,20.418795 3.421052,45.919748 24.3203129,53.019531 7.760415,2.893163 16.417425,3.368151 24.433593,1.263672 10.267241,9.084927 20.532532,18.172061 30.800782,27.255861 -1.34633,3.42092 -2.456403,6.92609 -3.277344,10.49414 -4.098755,15.39804 -3.512507,31.93783 1.148437,47.17578 -0.267741,0.2368 -0.534992,0.47414 -0.802734,0.71094 -9.614589,8.27265 -18.861808,17.13385 -28.652344,25.09961 -23.048782,-6.18802 -48.8606685,12.19922 -50.1406248,36.14648 -0.5545684,6.08523 0.479621,12.16879 1.8632813,18.07617 C 6.768086,233.77067 15.513042,226.00849 24.257812,218.24609 L 44.730469,240.875 c -8.748768,7.77206 -17.496899,15.54483 -26.246094,23.31641 19.285757,9.40757 45.285849,1.4666 54.771484,-18.10352 3.72242,-7.1353 5.296744,-15.3934 4.347657,-23.39258 7.493893,-6.63765 14.98886,-13.27408 22.482424,-19.91211 -2.217946,11.41242 9.33936,23.6714 21.11133,20.14844 4.04355,-0.63935 7.60028,-4.3341 10.02539,-6.3418 6.39867,8.91945 21.75876,8.99821 27.69726,-0.48437 6.83472,10.80239 25.67818,8.97384 29.79297,-3.36914 1.55022,-3.13449 1.27513,-6.85729 0.77734,-10.15039 7.56908,6.86216 15.70453,13.16993 22.70704,20.55078 -3.18508,23.81768 18.81183,47.09383 42.83984,44.93555 5.67877,-0.30321 11.16292,-1.95738 16.53125,-3.72071 -8.80629,-7.82738 -17.61612,-15.65077 -26.42383,-23.47656 l 20.47266,-22.62891 c 8.69695,7.71837 17.39091,15.44011 26.08984,23.15625 7.50739,-20.65589 -4.08858,-46.24714 -25.33984,-52.90234 -7.35608,-2.54333 -15.44668,-2.95623 -23.01172,-1.10742 -9.74642,-8.6305 -19.49062,-17.26351 -29.23828,-25.89258 5.60561,-18.73567 4.98074,-39.46116 -2.14844,-57.6582 10.4321,-8.983305 20.42668,-18.557443 31.08789,-27.173831 23.03094,6.553151 49.12711,-11.670995 50.62305,-35.664063 0.63527,-6.343942 -0.45022,-12.699567 -1.99805,-18.835937 C 283.07151,29.80083 274.45881,37.430791 265.84766,45.0625 258.99479,37.458333 252.14193,29.854167 245.28906,22.25 253.84524,14.644096 262.39963,7.0361686 270.95703,-0.56835938 264.7524,-2.2856614 258.45585,-4.2583803 251.9375,-3.9882812 229.18529,-4.1797382 209.45445,18.02989 212.11328,40.546875 c -3.3237,4.20508 -8.53337,6.746972 -12.03516,10.935547 -5.86666,5.192766 -11.7331,10.38518 -17.5996,15.578125 -11.2706,-7.440066 -24.53094,-11.793241 -38.14454,-11.507813 -13.38044,-0.05025 -26.05384,4.289978 -36.91406,11.539063 C 97.570757,58.086966 87.213932,49.753316 77.744141,40.439453 80.297975,17.694602 60.587489,-4.1215862 37.808594,-4.0527344 Z"
       transform="translate(5.0625,17.9375)"
       id="path1019"
       inkscape:connector-curvature="0" />
  </g>
  <g
     id="layer2-3"
     style="display:inline;fill:#ffffff;stroke:#000000;stroke-opacity:1"
     transform="translate(-484.95763,-136.29874)" />
</svg>
