<?xml version="1.0" encoding="UTF-8" standalone="no"?>
<!-- Created with Inkscape (http://www.inkscape.org/) -->

<svg
   version="1.0"
   width="289.875"
   height="264.125"
   id="svg2501"
   style="display:inline"
   xmlns="http://www.w3.org/2000/svg"
   xmlns:svg="http://www.w3.org/2000/svg"
   xmlns:rdf="http://www.w3.org/1999/02/22-rdf-syntax-ns#"
   xmlns:cc="http://creativecommons.org/ns#"
   xmlns:dc="http://purl.org/dc/elements/1.1/">
  <metadata
     id="metadata3123">
    <rdf:RDF>
      <cc:Work
         rdf:about="">
        <dc:format>image/svg+xml</dc:format>
        <dc:type
           rdf:resource="http://purl.org/dc/dcmitype/StillImage" />
      </cc:Work>
    </rdf:RDF>
  </metadata>
  <defs
     id="defs2504">
    <filter
       id="filter5076"
       color-interpolation-filters="sRGB">
      <feGaussianBlur
         stdDeviation="0.15793104"
         id="feGaussianBlur5078" />
    </filter>
    <filter
       id="filter5084"
       color-interpolation-filters="sRGB">
      <feGaussianBlur
         stdDeviation="0.14620583"
         id="feGaussianBlur5086" />
    </filter>
    <filter
       id="filter5092"
       color-interpolation-filters="sRGB">
      <feGaussianBlur
         stdDeviation="0.14620583"
         id="feGaussianBlur5094" />
    </filter>
    <filter
       id="filter5096"
       color-interpolation-filters="sRGB">
      <feGaussianBlur
         stdDeviation="0.14620583"
         id="feGaussianBlur5098" />
    </filter>
    <filter
       id="filter5104"
       color-interpolation-filters="sRGB">
      <feGaussianBlur
         stdDeviation="0.11379095"
         id="feGaussianBlur5106" />
    </filter>
    <filter
       id="filter5112"
       color-interpolation-filters="sRGB">
      <feGaussianBlur
         stdDeviation="0.23733402"
         id="feGaussianBlur5114" />
    </filter>
    <filter
       id="filter5120"
       color-interpolation-filters="sRGB">
      <feGaussianBlur
         stdDeviation="0.23733402"
         id="feGaussianBlur5122" />
    </filter>
    <filter
       id="filter5144"
       color-interpolation-filters="sRGB">
      <feGaussianBlur
         stdDeviation="0.37132122"
         id="feGaussianBlur5146" />
    </filter>
    <filter
       id="filter5158"
       color-interpolation-filters="sRGB">
      <feGaussianBlur
         stdDeviation="0.37132122"
         id="feGaussianBlur5160" />
    </filter>
    <filter
       id="filter5205"
       color-interpolation-filters="sRGB">
      <feGaussianBlur
         stdDeviation="0.34722241"
         id="feGaussianBlur5207" />
    </filter>
    <filter
       id="filter5224"
       color-interpolation-filters="sRGB">
      <feGaussianBlur
         stdDeviation="0.41331904"
         id="feGaussianBlur5226" />
    </filter>
    <filter
       id="filter5232"
       color-interpolation-filters="sRGB">
      <feGaussianBlur
         stdDeviation="0.34722241"
         id="feGaussianBlur5234" />
    </filter>
    <filter
       id="filter5240"
       color-interpolation-filters="sRGB">
      <feGaussianBlur
         stdDeviation="0.34273968"
         id="feGaussianBlur5242" />
    </filter>
    <filter
       id="filter5264"
       color-interpolation-filters="sRGB">
      <feGaussianBlur
         stdDeviation="0.31453825"
         id="feGaussianBlur5266" />
    </filter>
    <filter
       id="filter5277"
       color-interpolation-filters="sRGB">
      <feGaussianBlur
         stdDeviation="0.3145382"
         id="feGaussianBlur5279" />
    </filter>
  </defs>
  <g
     id="layer2"
     style="display:inline;fill:#ffffff;stroke:#000000;stroke-opacity:1"
     transform="translate(-3.1557237,104.732)" />
  <g
     id="layer2-3"
     style="display:inline;fill:#ffffff;stroke:#000000;stroke-opacity:1"
     transform="translate(-484.95763,-136.29874)" />
  <path
     id="path1090-3"
     style="display:inline;fill:#ffffff;fill-opacity:1;stroke:#000000;stroke-width:1;stroke-miterlimit:4;stroke-dasharray:none;stroke-opacity:1"
     d="m 240.88961,-5.1011376 c -9.35786,0.53349 -18.50474,4.1401716 -25.68359,10.1718746 -7.70957,6.394591 -13.27104,15.538721 -14.69141,25.515621 -0.57545,3.36129 -0.69597,6.77437 -0.65625,10.17774 -0.19252,0.5395 -0.88722,0.84566 -1.27734,1.29297 -8.83478,7.8191 -17.66914,15.63793 -26.50391,23.45703 -11.87092,-7.56382 -26.05059,-11.4964 -40.12891,-10.91016 -12.23066,0.48117 -24.28704,4.32693 -34.611318,10.88672 -2.67917,-2.23604 -5.23562,-4.62144 -7.8711,-6.91211 -6.64162,-5.88848 -13.32041,-11.76622 -19.93359,-17.66797 0.79543,-11.36631 -3.11006,-23.06508 -10.83203,-31.48047 -4.81928,-5.141952 -10.6339,-9.508664 -17.33985,-11.837886 -5.80389,-2.0949486 -12.07558,-2.9958486 -18.22656,-2.4140626 -3.47309,0.472399 -6.85496,2.7542226 -7.89648,6.2128906 -1.18378,3.698059 0.37299,7.829218 3.20507,10.345698 2.37234,2.2476 4.89357,4.33444 7.30469,6.54102 1.91879,1.70653 3.83707,3.41262 5.75586,5.11914 -5.96094,6.61458 -11.92187,13.22917 -17.88281,19.84375 -4.81514,-4.23457 -9.56503,-8.57678 -14.47851997,-12.71289 -3.21290003,-2.35523 -7.96849003,-2.93059 -11.31836003,-0.53125 -3.2078,2.16753 -4.44484,6.33267 -4.01953,10.04492 0.54489,10.29165 4.77159,20.4798 12.17969,27.72266 4.38724003,4.48042 9.64005,8.18878 15.55859,10.33984 7.85654,2.94529 16.58541,3.58112 24.76368,1.66406 l 29.0664,25.722662 c -6.74194,17.91332 -7.47831,37.99351 -2.20508,56.38281 -9.12703,8.12654 -18.29741,16.21084 -27.45117,24.31055 -13.12257,-2.85937 -27.56102,0.86887 -37.52929,9.90234 -5.24492,4.94757 -9.63744,10.95418 -11.98438,17.82032 -1.64818,4.70368 -2.56177,9.71055 -2.38086,14.70117 0.33443,3.93146 3.25905,7.73349 7.26758,8.38672 3.71137,0.74947 7.45277,-1.06652 10.04101,-3.64649 4.24246,-3.76693 8.4841,-7.53384 12.72657,-11.30078 5.92968,6.55469 11.85937,13.10938 17.78906,19.66406 -4.89717,4.38157 -9.86995,8.68494 -14.68164,13.15821 -2.70464,2.85156 -3.88455,7.41484 -1.98047,11.00781 1.72703,3.48327 5.74751,5.22789 9.49609,5.19531 11.10802,0.51607 22.47523,-3.30404 30.71875,-10.83008 5.2723,-4.9793 9.68805,-11.02582 12.02539,-17.9414 1.98268,-5.689 2.79379,-11.79988 2.23829,-17.80469 6.0944,-5.39779 12.1888,-10.79557 18.2832,-16.19336 0.41269,6.16191 3.8893,12.06489 9.20703,15.25 5.350548,3.29336 12.365058,3.77202 18.037108,1.00195 2.17908,-1.02547 4.15796,-2.4701 5.81055,-4.2207 4.24197,4.55786 10.79669,6.86707 16.95117,5.78906 4.16489,-0.69367 8.07743,-2.80362 10.9414,-5.90625 4.12531,4.50818 10.49165,6.86972 16.55665,5.98438 6.84296,-0.90659 13.02888,-5.80236 15.30078,-12.34961 0.64417,-1.77505 1.01095,-3.64995 1.10351,-5.53516 6.08464,5.38998 12.16927,10.77996 18.25391,16.16992 -1.35311,14.35428 5.23502,29.15619 16.72851,37.8379 4.34127,3.13629 9.21687,5.53221 14.32618,7.12695 5.35982,1.55303 11.05091,2.05605 16.58789,1.33594 3.80968,-0.68025 7.31875,-3.78113 7.70898,-7.75391 0.5206,-3.83377 -1.68223,-7.51871 -4.60156,-9.83984 -4.30824,-3.82811 -8.61559,-7.65626 -12.92383,-11.48438 l 17.78906,-19.66211 c 4.9124,4.33412 9.75541,8.75243 14.75391,12.98438 3.18372,2.37514 7.91199,2.97967 11.27539,0.6289 3.23669,-2.1546 4.48965,-6.34591 4.0293,-10.07031 -0.82963,-13.02718 -7.81008,-25.63758 -18.70313,-32.91211 -6.48173,-4.08071 -13.88735,-6.92933 -21.58594,-7.34961 -3.89367,-0.24465 -7.82194,0.0412 -11.63476,0.86914 -9.14974,-8.10221 -18.29948,-16.20442 -27.44922,-24.30664 5.28908,-18.39308 4.53201,-38.48157 -2.20117,-56.40234 9.67903,-8.565762 19.35807,-17.131512 29.03711,-25.697272 15.2926,3.69821 32.30506,-2.11045 42.43164,-14.08203 4.07019,-4.80327 6.85777,-10.59333 8.66992,-16.59375 1.32031,-4.66124 1.84925,-9.64074 0.9082,-14.42187 -1.29732,-3.7527 -5.18014,-6.65041 -9.22656,-6.17188 -3.64784,0.28923 -6.72136,2.58515 -9.22266,5.08984 l -10.84765,9.62696 -17.88477,-19.84571 c 4.91042,-4.38122 9.95969,-8.64213 14.61328,-13.29882 1.84406,-2.93598 2.62549,-6.885204 0.8711,-10.042972 -1.72883,-3.211759 -5.41791,-4.7702736 -8.90821,-5.0605466 -1.18361,-0.118414 -2.37041,-0.125174 -3.55859,-0.0918 z" />
</svg>
