<?xml version="1.0" encoding="UTF-8" standalone="no"?>
<!-- Created with Inkscape (http://www.inkscape.org/) -->

<svg
   version="1.0"
   width="289.875"
   height="264.125"
   id="svg2501"
   style="display:inline"
   xmlns="http://www.w3.org/2000/svg"
   xmlns:svg="http://www.w3.org/2000/svg"
   xmlns:rdf="http://www.w3.org/1999/02/22-rdf-syntax-ns#"
   xmlns:cc="http://creativecommons.org/ns#"
   xmlns:dc="http://purl.org/dc/elements/1.1/">
  <metadata
     id="metadata3123">
    <rdf:RDF>
      <cc:Work
         rdf:about="">
        <dc:format>image/svg+xml</dc:format>
        <dc:type
           rdf:resource="http://purl.org/dc/dcmitype/StillImage" />
      </cc:Work>
    </rdf:RDF>
  </metadata>
  <defs
     id="defs2504">
    <filter
       id="filter5076"
       color-interpolation-filters="sRGB">
      <feGaussianBlur
         stdDeviation="0.15793104"
         id="feGaussianBlur5078" />
    </filter>
    <filter
       id="filter5084"
       color-interpolation-filters="sRGB">
      <feGaussianBlur
         stdDeviation="0.14620583"
         id="feGaussianBlur5086" />
    </filter>
    <filter
       id="filter5092"
       color-interpolation-filters="sRGB">
      <feGaussianBlur
         stdDeviation="0.14620583"
         id="feGaussianBlur5094" />
    </filter>
    <filter
       id="filter5096"
       color-interpolation-filters="sRGB">
      <feGaussianBlur
         stdDeviation="0.14620583"
         id="feGaussianBlur5098" />
    </filter>
    <filter
       id="filter5104"
       color-interpolation-filters="sRGB">
      <feGaussianBlur
         stdDeviation="0.11379095"
         id="feGaussianBlur5106" />
    </filter>
    <filter
       id="filter5112"
       color-interpolation-filters="sRGB">
      <feGaussianBlur
         stdDeviation="0.23733402"
         id="feGaussianBlur5114" />
    </filter>
    <filter
       id="filter5120"
       color-interpolation-filters="sRGB">
      <feGaussianBlur
         stdDeviation="0.23733402"
         id="feGaussianBlur5122" />
    </filter>
    <filter
       id="filter5144"
       color-interpolation-filters="sRGB">
      <feGaussianBlur
         stdDeviation="0.37132122"
         id="feGaussianBlur5146" />
    </filter>
    <filter
       id="filter5158"
       color-interpolation-filters="sRGB">
      <feGaussianBlur
         stdDeviation="0.37132122"
         id="feGaussianBlur5160" />
    </filter>
    <filter
       id="filter5205"
       color-interpolation-filters="sRGB">
      <feGaussianBlur
         stdDeviation="0.34722241"
         id="feGaussianBlur5207" />
    </filter>
    <filter
       id="filter5224"
       color-interpolation-filters="sRGB">
      <feGaussianBlur
         stdDeviation="0.41331904"
         id="feGaussianBlur5226" />
    </filter>
    <filter
       id="filter5232"
       color-interpolation-filters="sRGB">
      <feGaussianBlur
         stdDeviation="0.34722241"
         id="feGaussianBlur5234" />
    </filter>
    <filter
       id="filter5240"
       color-interpolation-filters="sRGB">
      <feGaussianBlur
         stdDeviation="0.34273968"
         id="feGaussianBlur5242" />
    </filter>
    <filter
       id="filter5264"
       color-interpolation-filters="sRGB">
      <feGaussianBlur
         stdDeviation="0.31453825"
         id="feGaussianBlur5266" />
    </filter>
    <filter
       id="filter5277"
       color-interpolation-filters="sRGB">
      <feGaussianBlur
         stdDeviation="0.3145382"
         id="feGaussianBlur5279" />
    </filter>
  </defs>
  <g
     id="layer2"
     style="display:inline;fill:#ffffff;stroke:#000000;stroke-opacity:1"
     transform="translate(-3.1557237,104.732)" />
  <g
     id="layer2-3"
     style="display:inline;fill:#ffffff;stroke:#000000;stroke-opacity:1"
     transform="translate(-484.95763,-136.29874)" />
  <path
     style="display:inline;fill:#ffffff;fill-opacity:1;stroke:#000000;stroke-opacity:1;stroke-width:1;stroke-miterlimit:4;stroke-dasharray:none"
     d="m -135.88771,171.33262 -27.875,-24.6875 c -4.76658,12.82036 -12.38246,24.04016 -21.96875,32.6875 l 24.0625,21.3125"
     id="path7515" />
  <path
     style="display:inline;fill:#ffffff;fill-opacity:1;stroke:#000000;stroke-opacity:1;stroke-width:1;stroke-miterlimit:4;stroke-dasharray:none"
     d="m -112.88771,192.14512 c 5.98493,5.31299 11.96985,10.62598 17.954779,15.93897 3.304165,2.9332 6.788217,1.76096 6.628218,-2.64403 -0.394173,-10.85216 -5.836295,-21.47221 -14.436037,-28.10197 -3.49083,-2.69118 -10.10994,-5.69264 -14.41303,-6.65735 -6.16854,-1.38293 -12.68553,-1.22198 -18.73393,0.65188"
     id="path7513" />
  <path
     style="display:inline;fill:#ffffff;fill-opacity:1;stroke:#000000;stroke-opacity:1;stroke-width:1;stroke-miterlimit:4;stroke-dasharray:none"
     d="m -138.73146,220.70762 25.84375,-28.5625"
     id="path7511" />
  <path
     style="display:inline;fill:#ffffff;fill-opacity:1;stroke:#000000;stroke-opacity:1;stroke-width:1;stroke-miterlimit:4;stroke-dasharray:none"
     d="m -161.66896,200.64512 c -2.37482,12.70486 2.94161,26.27986 12.77076,34.51238 3.3793,2.83038 9.86517,6.10956 14.12826,7.23703 3.98539,1.05402 8.14588,1.45281 12.25392,1.15442 4.39724,-0.3194 5.16928,-3.84503 1.86607,-6.77931 -6.02717,-5.35401 -12.05434,-10.70801 -18.08151,-16.06202"
     id="path7509" />
  <path
     id="path7501"
     style="display:inline;fill:#ffffff;fill-opacity:1;stroke:#000000;stroke-width:1;stroke-miterlimit:4;stroke-dasharray:none;stroke-opacity:1"
     d="m -327.95021,1.457618 -25.90625,28.75 m 0,0 -17.63787,-15.631443 c -3.3066,-2.930454 -6.81189,-1.764148 -6.71296,2.643328 0.16471,7.33785 2.57258,14.615267 6.80651,20.612445 2.5427,3.601616 7.92235,8.488944 11.75004,10.676687 8.8501,5.058333 19.77732,6.341608 29.54428,3.136483 m 0,0 29.875,26.4375 c 5.67539,-12.33031 14.05997,-22.873775 24.3125,-30.6875 l -28.8125,-25.5 m 0,0 c 1.5283,-9.66952 -1.16107,-19.8108947 -6.99461,-27.6167218 -2.63925,-3.5315616 -8.14672,-8.2739582 -12.03226,-10.3571552 -5.92587,-3.177098 -12.73262,-4.704106 -19.44482,-4.348894 -4.40241,0.232977 -5.19545,3.702787 -1.89368,6.638685 l 17.14662,15.246586" />
  <path
     style="display:inline;fill:#ffffff;fill-opacity:1;stroke:#000000;stroke-opacity:1;stroke-width:1;stroke-miterlimit:4;stroke-dasharray:none"
     d="m -304.85646,200.64512 24.0625,-21.3125 c -9.58629,-8.64734 -17.20217,-19.86714 -21.96875,-32.6875 l -27.875,24.6875"
     id="path7499" />
  <path
     style="display:inline;fill:#ffffff;fill-opacity:1;stroke:#000000;stroke-opacity:1;stroke-width:1;stroke-miterlimit:4;stroke-dasharray:none"
     d="m -327.79396,220.70762 c -6.02717,5.35401 -12.05434,10.70801 -18.08151,16.06202 -3.30321,2.93428 -2.53478,6.47893 1.86219,6.79476 8.93446,0.64174 18.10114,-2.08451 25.23341,-7.50535 3.50965,-2.66749 8.16037,-8.25175 10.20505,-12.15851 3.70741,-7.08373 5.147,-15.36666 3.71836,-23.25542"
     id="path7497" />
  <path
     style="display:inline;fill:#ffffff;fill-opacity:1;stroke:#000000;stroke-opacity:1;stroke-width:1;stroke-miterlimit:4;stroke-dasharray:none"
     d="m -353.63771,192.14512 25.84375,28.5625"
     id="path7495" />
  <path
     style="display:inline;fill:#ffffff;fill-opacity:1;stroke:#000000;stroke-opacity:1;stroke-width:1;stroke-miterlimit:4;stroke-dasharray:none"
     d="m -330.63771,171.33262 c -11.18632,-3.51272 -23.90592,-1.00534 -33.17748,6.061 -3.50609,2.67217 -8.14832,8.26422 -10.18068,12.17727 -2.54222,4.89472 -3.99998,10.35874 -4.19722,15.86568 -0.15779,4.40579 3.29644,5.58072 6.6006,2.64752 5.98493,-5.31299 11.96985,-10.62598 17.95478,-15.93897"
     id="path7493" />
  <path
     style="display:inline;fill:#ffffff;fill-opacity:1;stroke:#000000;stroke-opacity:1;stroke-width:1;stroke-miterlimit:4;stroke-dasharray:none"
     d="m -138.57521,1.457618 c 5.71554,-5.0821967 11.43108,-10.1643902 17.14662,-15.246586 3.30177,-2.935897 2.50778,-6.390917 -1.89432,-6.642906 -4.39917,-0.251823 -8.84163,0.287786 -13.03846,1.614481 -4.20318,1.328708 -10.46092,5.020255 -13.7244,7.986283 -3.82208,3.4737186 -6.93967,7.7248542 -9.03897,12.4332194 -1.79517,4.0262684 -3.06731,11.1625826 -2.97645,15.5635396 0.0353,1.710005 0.0637,3.41986 -0.12376,5.110909"
     id="path7491" />
  <path
     style="display:inline;fill:#ffffff;fill-opacity:1;stroke:#000000;stroke-opacity:1;stroke-width:1;stroke-miterlimit:4;stroke-dasharray:none"
     d="m -112.66896,30.207618 c -8.63542,-9.583333 -17.27083,-19.166667 -25.90625,-28.75"
     id="path7489" />
  <path
     style="display:inline;fill:#ffffff;fill-opacity:1;stroke:#000000;stroke-opacity:1;stroke-width:1;stroke-miterlimit:4;stroke-dasharray:none"
     d="m -136.41896,51.645118 c 13.11711,4.474307 28.42592,0.233861 37.930254,-9.665662 3.052658,-3.179587 6.775433,-9.424496 8.192964,-13.599637 1.21872,-3.589569 1.88441,-7.368346 1.964278,-11.158065 0.0929,-4.408183 -3.393027,-5.576033 -6.699629,-2.645579 l -17.637867,15.631443"
     id="path7487" />
  <path
     style="display:inline;fill:#ffffff;fill-opacity:1;stroke:#000000;stroke-opacity:1;stroke-width:1;stroke-miterlimit:4;stroke-dasharray:none"
     d="m -162.22495,22.276558 c -9.4605,8.372853 -18.92101,16.745707 -28.38151,25.11856 10.49792,7.992322 18.81442,18.717971 24.3125,30.6875 9.95833,-8.8125 19.91667,-17.625 29.875,-26.4375"
     id="path7485" />
  <path
     style="display:inline;fill:#ffffff;fill-opacity:1;stroke:#000000;stroke-opacity:1;stroke-width:1;stroke-miterlimit:4;stroke-dasharray:none"
     d="m -233.26271,39.082618 c -38.09944,-2e-6 -69,34.23202 -69,76.468752 0,26.11684 11.8471,49.17465 29.875,62.96875 -1.18992,2.01969 -1.87601,4.38005 -1.875,6.90625 -0.003,7.42941 5.91632,13.46875 13.21875,13.46875 7.30241,0 13.22172,-6.03934 13.21875,-13.46875 2.1e-4,-0.52917 -0.0355,-1.04926 -0.0937,-1.5625 h 1.8125 c -0.1031,0.66012 -0.15653,1.34216 -0.15625,2.03125 -0.003,7.17884 5.81821,13 13,13 7.18176,0 13.00292,-5.82116 13,-13 2.8e-4,-0.68909 -0.0531,-1.37113 -0.15625,-2.03125 h 2.3125 c -0.1031,0.66012 -0.15653,1.34216 -0.15625,2.03125 -0.003,7.17884 5.81821,13 13,13 7.18176,0 13.00292,-5.82116 13,-13 0.001,-2.64206 -0.8021,-5.10449 -2.15625,-7.15625 18.18729,-13.76861 30.1562,-36.93396 30.1562,-63.1875 0,-42.236732 -30.90056,-76.468753 -69,-76.468752 z"
     id="path7483" />
  <path
     style="display:inline;fill:#ffffff;fill-opacity:1;stroke:#000000;stroke-opacity:1;stroke-width:1;stroke-miterlimit:4;stroke-dasharray:none"
     d="m -233.04396,135.39512 c 3.69479,0.10156 7.34295,15.42198 6.40625,21.46875 -3.08233,9.0731 -2.51099,-5.91849 -6.40625,-6.09375 -4.06846,0.0127 -4.82315,14.82175 -6.9375,6.125 -0.66664,-6.57125 3.5692,-21.59258 6.9375,-21.5 z"
     id="path7481" />
  <path
     style="display:inline;fill:#ffffff;fill-opacity:1;stroke:#000000;stroke-opacity:1;stroke-width:1;stroke-miterlimit:4;stroke-dasharray:none"
     d="m -203.60646,96.145118 c 1.29246,0.005 2.57285,0.14704 3.84375,0.4375 4.89863,0.61337 9.02979,3.944942 11.875,7.812502 2.50471,3.10175 4.4515,6.86873 4.5,10.9375 0.38828,3.35447 -0.29202,6.71512 -0.90625,10 -0.79628,3.8855 -3.53702,7.05029 -6.65625,9.34375 -1.42549,1.14414 -3.48938,2.73135 -5.3125,1.40625 -1.20333,-1.62481 -0.18533,-3.99983 -1.28125,-5.78125 -0.3971,-1.7674 -1.56609,-3.05442 -3.125,-3.9375 -3.17454,-1.59261 -6.36616,-3.16128 -9.75,-4.28125 -2.75979,-0.80847 -5.02719,-2.64716 -7.375,-4.21875 -3.07931,-2.37423 -5.11919,-6.74068 -3.65625,-10.5625 1.6846,-3.0661 3.90883,-5.8993 6.75,-7.968752 3.31558,-1.9831 7.21638,-3.20281 11.09375,-3.1875 z"
     id="path7479" />
  <path
     style="display:inline;fill:#ffffff;fill-opacity:1;stroke:#000000;stroke-opacity:1;stroke-width:1;stroke-miterlimit:4;stroke-dasharray:none"
     d="m -262.91896,96.145118 c 3.87737,-0.0153 7.77817,1.2044 11.09375,3.1875 2.84117,2.069462 5.0654,4.902652 6.75,7.968752 1.46294,3.82182 -0.57694,8.18827 -3.65625,10.5625 -2.34781,1.57159 -4.61521,3.41028 -7.375,4.21875 -3.38384,1.11997 -6.57546,2.68864 -9.75,4.28125 -1.55891,0.88308 -2.7279,2.1701 -3.125,3.9375 -1.09591,1.78142 -0.0779,4.15644 -1.28125,5.78125 -1.82312,1.3251 -3.88701,-0.26211 -5.3125,-1.40625 -3.11923,-2.29346 -5.85997,-5.45825 -6.65625,-9.34375 -0.61423,-3.28488 -1.29453,-6.64553 -0.90625,-10 0.0485,-4.06877 1.99529,-7.83575 4.5,-10.9375 2.84521,-3.86756 6.97637,-7.199132 11.875,-7.812502 1.2709,-0.29046 2.55129,-0.4324 3.84375,-0.4375 z"
     id="path1090" />
</svg>
